<mxfile host="65bd71144e">
    <diagram id="0vgVF-1DzY3rstgfP206" name="Page-1">
        <mxGraphModel dx="689" dy="441" grid="1" gridSize="10" guides="1" tooltips="1" connect="1" arrows="1" fold="1" page="1" pageScale="1" pageWidth="850" pageHeight="1100" math="0" shadow="0">
            <root>
                <mxCell id="0"/>
                <mxCell id="1" parent="0"/>
                <mxCell id="11" value="" style="shape=callout;whiteSpace=wrap;html=1;perimeter=calloutPerimeter;fontSize=48;position2=0.09;size=30;position=0.11;" parent="1" vertex="1">
                    <mxGeometry x="175" y="140" width="500" height="250" as="geometry"/>
                </mxCell>
                <mxCell id="2" value="&lt;span style=&quot;font-size: 36px;&quot;&gt;Why is a finite state machine?&lt;/span&gt;" style="text;html=1;strokeColor=none;fillColor=none;align=center;verticalAlign=middle;whiteSpace=wrap;rounded=0;" parent="1" vertex="1">
                    <mxGeometry x="180" width="530" height="60" as="geometry"/>
                </mxCell>
                <mxCell id="3" value="" style="endArrow=none;html=1;fontSize=36;exitX=0;exitY=1;exitDx=0;exitDy=0;entryX=1;entryY=1;entryDx=0;entryDy=0;" parent="1" source="2" target="2" edge="1">
                    <mxGeometry width="50" height="50" relative="1" as="geometry">
                        <mxPoint x="330" y="200" as="sourcePoint"/>
                        <mxPoint x="380" y="150" as="targetPoint"/>
                    </mxGeometry>
                </mxCell>
                <mxCell id="4" value="&lt;font style=&quot;font-size: 24px;&quot;&gt;All states and actions are known in a finite state machine&lt;/font&gt;" style="text;html=1;strokeColor=none;fillColor=none;align=center;verticalAlign=middle;whiteSpace=wrap;rounded=0;" parent="1" vertex="1">
                    <mxGeometry x="160" y="70" width="657.5" height="30" as="geometry"/>
                </mxCell>
                <mxCell id="5" value="&lt;font style=&quot;font-size: 18px;&quot;&gt;Machine cannot be in an unknown state&lt;/font&gt;" style="text;html=1;strokeColor=none;fillColor=none;align=center;verticalAlign=middle;whiteSpace=wrap;rounded=0;fontSize=18;" parent="1" vertex="1">
                    <mxGeometry x="150" y="100" width="400" height="30" as="geometry"/>
                </mxCell>
                <mxCell id="6" value="&lt;h1&gt;ChatGPT:&lt;/h1&gt;&lt;p&gt;Modeling processes with finite state machines offers clarity and structure by breaking them down into distinct states and transitions, facilitating easy understanding and implementation. Their deterministic nature ensures predictable behavior, aiding in reliable execution and error handling. Additionally, FSMs support visualization, modularity, and testing, making them valuable for designing and analyzing a variety of systems and processes.&lt;/p&gt;" style="text;html=1;strokeColor=none;fillColor=none;spacing=5;spacingTop=-20;whiteSpace=wrap;overflow=hidden;rounded=0;fontSize=14;" parent="1" vertex="1">
                    <mxGeometry x="180" y="140" width="500" height="200" as="geometry"/>
                </mxCell>
                <UserObject label="&lt;font style=&quot;font-size: 11px;&quot;&gt;https://chat.openai.com/share/00aa4252-779a-461f-84af-1236fbc65c3c&lt;/font&gt;" link="https://chat.openai.com/share/00aa4252-779a-461f-84af-1236fbc65c3c" id="7">
                    <mxCell style="text;whiteSpace=wrap;html=1;fontSize=18;" parent="1" vertex="1">
                        <mxGeometry x="180" y="300" width="350" height="30" as="geometry"/>
                    </mxCell>
                </UserObject>
                <mxCell id="9" value="&lt;font style=&quot;font-size: 48px;&quot;&gt;🤔&lt;/font&gt;" style="text;html=1;strokeColor=none;fillColor=none;align=center;verticalAlign=middle;whiteSpace=wrap;rounded=0;" parent="1" vertex="1">
                    <mxGeometry x="620" y="400" width="90" height="60" as="geometry"/>
                </mxCell>
                <mxCell id="10" value="&lt;span style=&quot;font-size: 48px;&quot;&gt;❔&lt;/span&gt;" style="text;html=1;strokeColor=none;fillColor=none;align=center;verticalAlign=middle;whiteSpace=wrap;rounded=0;rotation=15;" parent="1" vertex="1">
                    <mxGeometry x="640" y="350" width="90" height="60" as="geometry"/>
                </mxCell>
                <mxCell id="12" value="&lt;font style=&quot;font-size: 48px;&quot;&gt;🤖&lt;/font&gt;" style="text;html=1;strokeColor=none;fillColor=none;align=center;verticalAlign=middle;whiteSpace=wrap;rounded=0;" parent="1" vertex="1">
                    <mxGeometry x="150" y="390" width="90" height="60" as="geometry"/>
                </mxCell>
                <mxCell id="13" value="&lt;b&gt;GPT&lt;/b&gt;" style="text;html=1;strokeColor=none;fillColor=none;align=center;verticalAlign=middle;whiteSpace=wrap;rounded=0;fontSize=18;" vertex="1" parent="1">
                    <mxGeometry x="160" y="370" width="60" height="30" as="geometry"/>
                </mxCell>
            </root>
        </mxGraphModel>
    </diagram>
</mxfile>